<svg width="174" height="174" viewBox="0 0 174 174" fill="none" xmlns="http://www.w3.org/2000/svg">
<mask id="mask0_2278_70" style="mask-type:alpha" maskUnits="userSpaceOnUse" x="0" y="0" width="174" height="174">
<rect width="173.609" height="173.609" rx="11" fill="#D7D7D7"/>
</mask>
<g mask="url(#mask0_2278_70)">
<line x1="-262.365" y1="257.32" x2="25.8375" y2="-30.882" stroke="#ED2822" stroke-width="8"/>
<line x1="-231.117" y1="257.32" x2="57.0855" y2="-30.882" stroke="#ED2822" stroke-width="8"/>
<line x1="-199.868" y1="257.32" x2="88.3336" y2="-30.882" stroke="#ED2822" stroke-width="8"/>
<line x1="-168.619" y1="257.32" x2="119.583" y2="-30.882" stroke="#ED2822" stroke-width="8"/>
<line x1="-137.369" y1="257.32" x2="150.833" y2="-30.882" stroke="#ED2822" stroke-width="8"/>
<line x1="-106.121" y1="257.32" x2="182.081" y2="-30.882" stroke="#ED2822" stroke-width="8"/>
<line x1="-74.8724" y1="257.32" x2="213.33" y2="-30.882" stroke="#ED2822" stroke-width="8"/>
<line x1="-43.6243" y1="257.32" x2="244.578" y2="-30.882" stroke="#ED2822" stroke-width="8"/>
<line x1="-12.3763" y1="257.32" x2="275.826" y2="-30.882" stroke="#ED2822" stroke-width="8"/>
<line x1="18.8727" y1="257.32" x2="307.075" y2="-30.882" stroke="#ED2822" stroke-width="8"/>
<line x1="50.1227" y1="257.32" x2="338.325" y2="-30.882" stroke="#ED2822" stroke-width="8"/>
<line x1="81.3708" y1="257.32" x2="369.573" y2="-30.882" stroke="#ED2822" stroke-width="8"/>
<line x1="112.619" y1="257.32" x2="400.821" y2="-30.882" stroke="#ED2822" stroke-width="8"/>
<line x1="143.868" y1="257.32" x2="432.07" y2="-30.882" stroke="#ED2822" stroke-width="8"/>
</g>
</svg>
